<svg width="1901" height="315" viewBox="0 0 1901 315" fill="none" xmlns="http://www.w3.org/2000/svg">
<path d="M267.187 124.432H196.165C195.218 117.14 193.276 110.559 190.341 104.688C187.405 98.8163 183.523 93.7974 178.693 89.6307C173.864 85.4641 168.134 82.2917 161.506 80.1137C154.972 77.841 147.727 76.7046 139.773 76.7046C125.663 76.7046 113.494 80.161 103.267 87.0739C93.1344 93.9868 85.3219 103.977 79.8295 117.046C74.4318 130.114 71.7329 145.928 71.7329 164.489C71.7329 183.807 74.4791 200 79.9715 213.068C85.5587 226.042 93.3712 235.843 103.409 242.472C113.542 249.006 125.521 252.273 139.347 252.273C147.112 252.273 154.167 251.278 160.511 249.29C166.951 247.301 172.585 244.413 177.415 240.625C182.339 236.742 186.364 232.055 189.489 226.563C192.708 220.975 194.934 214.678 196.165 207.671L267.187 208.097C265.956 220.975 262.216 233.665 255.966 246.165C249.811 258.665 241.335 270.076 230.54 280.398C219.744 290.625 206.581 298.769 191.051 304.83C175.615 310.89 157.907 313.921 137.926 313.921C111.6 313.921 88.0208 308.144 67.1875 296.591C46.4488 284.943 30.0662 267.992 18.0397 245.739C6.01321 223.485 -4.45247e-05 196.402 -4.45247e-05 164.489C-4.45247e-05 132.481 6.10791 105.35 18.3238 83.0966C30.5397 60.8429 47.0644 43.9394 67.8977 32.3864C88.731 20.8334 112.074 15.0569 137.926 15.0569C155.54 15.0569 171.828 17.519 186.79 22.4432C201.752 27.2728 214.915 34.375 226.278 43.75C237.642 53.0304 246.875 64.4413 253.977 77.983C261.08 91.5247 265.483 107.008 267.187 124.432ZM307.422 309.943V91.7614H374.893V131.534H377.166C381.143 117.14 387.63 106.439 396.626 99.4319C405.623 92.3296 416.087 88.7785 428.018 88.7785C431.238 88.7785 434.553 89.0152 437.962 89.4887C441.371 89.8675 444.543 90.483 447.479 91.3353V151.705C444.164 150.568 439.808 149.669 434.41 149.006C429.107 148.343 424.373 148.011 420.206 148.011C411.967 148.011 404.534 149.858 397.905 153.551C391.371 157.15 386.21 162.216 382.422 168.75C378.729 175.189 376.882 182.765 376.882 191.477V309.943H307.422ZM566.3 314.063C543.383 314.063 523.686 309.375 507.209 300C490.826 290.53 478.184 277.367 469.283 260.511C460.476 243.561 456.072 223.911 456.072 201.563C456.072 179.119 460.476 159.47 469.283 142.614C478.184 125.663 490.826 112.5 507.209 103.125C523.686 93.6554 543.383 88.9205 566.3 88.9205C589.216 88.9205 608.866 93.6554 625.249 103.125C641.726 112.5 654.368 125.663 663.175 142.614C672.076 159.47 676.527 179.119 676.527 201.563C676.527 223.911 672.076 243.561 663.175 260.511C654.368 277.367 641.726 290.53 625.249 300C608.866 309.375 589.216 314.063 566.3 314.063ZM566.726 261.648C575.059 261.648 582.114 259.091 587.891 253.977C593.667 248.864 598.071 241.761 601.101 232.671C604.226 223.58 605.788 213.068 605.788 201.136C605.788 189.015 604.226 178.409 601.101 169.318C598.071 160.227 593.667 153.125 587.891 148.011C582.114 142.898 575.059 140.341 566.726 140.341C558.108 140.341 550.817 142.898 544.851 148.011C538.98 153.125 534.481 160.227 531.356 169.318C528.326 178.409 526.811 189.015 526.811 201.136C526.811 213.068 528.326 223.58 531.356 232.671C534.481 241.761 538.98 248.864 544.851 253.977C550.817 259.091 558.108 261.648 566.726 261.648ZM712.109 309.943V91.7614H781.57V309.943H712.109ZM746.91 66.3353C737.157 66.3353 728.776 63.1156 721.768 56.6762C714.761 50.1421 711.257 42.2822 711.257 33.0966C711.257 24.0057 714.761 16.2406 721.768 9.80119C728.776 3.26709 737.157 3.8147e-05 746.91 3.8147e-05C756.759 3.8147e-05 765.14 3.26709 772.053 9.80119C779.06 16.2406 782.564 24.0057 782.564 33.0966C782.564 42.2822 779.06 50.1421 772.053 56.6762C765.14 63.1156 756.759 66.3353 746.91 66.3353ZM1016.26 158.381L952.486 160.085C951.823 155.54 950.024 151.515 947.088 148.011C944.152 144.413 940.317 141.619 935.582 139.631C930.942 137.547 925.544 136.506 919.389 136.506C911.34 136.506 904.474 138.116 898.793 141.335C893.205 144.555 890.459 148.911 890.554 154.403C890.459 158.665 892.164 162.358 895.668 165.483C899.266 168.608 905.658 171.117 914.844 173.011L956.889 180.966C978.669 185.133 994.863 192.046 1005.47 201.705C1016.17 211.364 1021.57 224.148 1021.66 240.057C1021.57 255.019 1017.12 268.04 1008.31 279.119C999.597 290.199 987.666 298.816 972.514 304.972C957.363 311.032 940.033 314.063 920.526 314.063C889.37 314.063 864.796 307.671 846.804 294.886C828.906 282.008 818.679 264.773 816.122 243.182L884.73 241.477C886.245 249.432 890.175 255.492 896.52 259.659C902.865 263.826 910.961 265.909 920.81 265.909C929.711 265.909 936.955 264.252 942.543 260.938C948.13 257.623 950.971 253.22 951.065 247.727C950.971 242.803 948.793 238.873 944.531 235.938C940.27 232.907 933.594 230.54 924.503 228.835L886.435 221.591C864.56 217.614 848.272 210.275 837.571 199.574C826.87 188.778 821.567 175.047 821.662 158.381C821.567 143.797 825.45 131.345 833.31 121.023C841.169 110.606 852.344 102.652 866.832 97.1591C881.321 91.6667 898.414 88.9205 918.111 88.9205C947.656 88.9205 970.952 95.1232 987.997 107.528C1005.04 119.839 1014.46 136.79 1016.26 158.381ZM1246.34 158.381L1182.56 160.085C1181.9 155.54 1180.1 151.515 1177.17 148.011C1174.23 144.413 1170.4 141.619 1165.66 139.631C1161.02 137.547 1155.62 136.506 1149.47 136.506C1141.42 136.506 1134.55 138.116 1128.87 141.335C1123.28 144.555 1120.54 148.911 1120.63 154.403C1120.54 158.665 1122.24 162.358 1125.75 165.483C1129.34 168.608 1135.74 171.117 1144.92 173.011L1186.97 180.966C1208.75 185.133 1224.94 192.046 1235.55 201.705C1246.25 211.364 1251.65 224.148 1251.74 240.057C1251.65 255.019 1247.19 268.04 1238.39 279.119C1229.68 290.199 1217.74 298.816 1202.59 304.972C1187.44 311.032 1170.11 314.063 1150.6 314.063C1119.45 314.063 1094.87 307.671 1076.88 294.886C1058.98 282.008 1048.76 264.773 1046.2 243.182L1114.81 241.477C1116.32 249.432 1120.25 255.492 1126.6 259.659C1132.94 263.826 1141.04 265.909 1150.89 265.909C1159.79 265.909 1167.03 264.252 1172.62 260.938C1178.21 257.623 1181.05 253.22 1181.14 247.727C1181.05 242.803 1178.87 238.873 1174.61 235.938C1170.35 232.907 1163.67 230.54 1154.58 228.835L1116.51 221.591C1094.64 217.614 1078.35 210.275 1067.65 199.574C1056.95 188.778 1051.65 175.047 1051.74 158.381C1051.65 143.797 1055.53 131.345 1063.39 121.023C1071.25 110.606 1082.42 102.652 1096.91 97.1591C1111.4 91.6667 1128.49 88.9205 1148.19 88.9205C1177.73 88.9205 1201.03 95.1232 1218.08 107.528C1235.12 119.839 1244.54 136.79 1246.34 158.381ZM1347.44 313.636C1333.52 313.636 1321.16 311.316 1310.37 306.676C1299.67 301.941 1291.19 294.839 1284.94 285.369C1278.79 275.805 1275.71 263.826 1275.71 249.432C1275.71 237.311 1277.84 227.083 1282.1 218.75C1286.36 210.417 1292.23 203.646 1299.72 198.438C1307.2 193.229 1315.81 189.299 1325.57 186.648C1335.32 183.902 1345.74 182.055 1356.82 181.108C1369.22 179.972 1379.21 178.788 1386.79 177.557C1394.37 176.231 1399.86 174.385 1403.27 172.017C1406.77 169.555 1408.52 166.099 1408.52 161.648V160.938C1408.52 153.646 1406.01 148.011 1400.99 144.034C1395.98 140.057 1389.2 138.068 1380.68 138.068C1371.5 138.068 1364.11 140.057 1358.52 144.034C1352.94 148.011 1349.38 153.504 1347.87 160.511L1283.81 158.239C1285.7 144.981 1290.58 133.144 1298.44 122.727C1306.39 112.216 1317.28 103.977 1331.11 98.0114C1345.03 91.9508 1361.74 88.9205 1381.25 88.9205C1395.17 88.9205 1408 90.5777 1419.74 93.8921C1431.49 97.1118 1441.71 101.847 1450.43 108.097C1459.14 114.252 1465.86 121.828 1470.6 130.824C1475.43 139.82 1477.84 150.095 1477.84 161.648V309.943H1412.5V279.546H1410.8C1406.91 286.932 1401.94 293.182 1395.88 298.296C1389.91 303.409 1382.86 307.244 1374.72 309.801C1366.67 312.358 1357.58 313.636 1347.44 313.636ZM1368.89 268.182C1376.37 268.182 1383.1 266.667 1389.06 263.636C1395.12 260.606 1399.95 256.439 1403.55 251.136C1407.15 245.739 1408.95 239.489 1408.95 232.386V211.648C1406.96 212.689 1404.55 213.636 1401.7 214.489C1398.96 215.341 1395.93 216.146 1392.61 216.903C1389.3 217.661 1385.89 218.324 1382.39 218.892C1378.88 219.46 1375.52 219.981 1372.3 220.455C1365.77 221.496 1360.18 223.106 1355.54 225.284C1350.99 227.462 1347.49 230.303 1345.03 233.807C1342.66 237.216 1341.48 241.288 1341.48 246.023C1341.48 253.22 1344.03 258.712 1349.15 262.5C1354.36 266.288 1360.94 268.182 1368.89 268.182ZM1589.77 185.511V309.943H1520.31V91.7614H1586.36V131.818H1588.78C1593.61 118.466 1601.85 108.002 1613.49 100.426C1625.14 92.7557 1639.02 88.9205 1655.11 88.9205C1670.45 88.9205 1683.76 92.3769 1695.03 99.2898C1706.39 106.108 1715.2 115.672 1721.45 127.983C1727.79 140.199 1730.92 154.498 1730.82 170.881V309.943H1661.36V184.517C1661.46 172.396 1658.38 162.926 1652.13 156.108C1645.98 149.29 1637.41 145.881 1626.42 145.881C1619.13 145.881 1612.69 147.491 1607.1 150.71C1601.61 153.835 1597.35 158.333 1594.32 164.205C1591.38 170.076 1589.87 177.178 1589.77 185.511ZM1896.98 91.7614V142.898H1759.34V91.7614H1896.98ZM1788.17 39.4887H1857.63V241.335C1857.63 245.597 1858.3 249.053 1859.62 251.705C1861.04 254.261 1863.08 256.108 1865.73 257.244C1868.38 258.286 1871.56 258.807 1875.25 258.807C1877.9 258.807 1880.69 258.57 1883.63 258.097C1886.66 257.528 1888.93 257.055 1890.45 256.676L1900.96 306.818C1897.64 307.765 1892.96 308.949 1886.9 310.369C1880.93 311.79 1873.78 312.689 1865.45 313.068C1849.16 313.826 1835.19 311.932 1823.54 307.386C1811.99 302.746 1803.14 295.549 1796.98 285.796C1790.92 276.042 1787.99 263.778 1788.17 249.006V39.4887Z" fill="url(#paint0_linear_2134_76)"/>
<defs>
<linearGradient id="paint0_linear_2134_76" x1="946.108" y1="-77.0568" x2="946.108" y2="406.943" gradientUnits="userSpaceOnUse">
<stop stop-color="#A31E1C" stop-opacity="0.6"/>
<stop offset="0.893086" stop-color="#E34B4A" stop-opacity="0"/>
</linearGradient>
</defs>
</svg>
